<?xml version="1.0" encoding="utf-8"?>
<!-- Generator: Adobe Illustrator 21.1.0, SVG Export Plug-In . SVG Version: 6.00 Build 0)  -->
<svg version="1.1" id="mystic_x5F_light_x5F_rgb" xmlns="http://www.w3.org/2000/svg" xmlns:xlink="http://www.w3.org/1999/xlink"
	 x="0px" y="0px" viewBox="0 0 55 55" style="enable-background:new 0 0 55 55;" xml:space="preserve">
<style type="text/css">
	.st0{fill-rule:evenodd;clip-rule:evenodd;}
	.st1{fill-rule:evenodd;clip-rule:evenodd;fill:#221E1F;}
	.st2{fill:#FFFFFF;}
	.st3{fill-rule:evenodd;clip-rule:evenodd;fill:#FFFFFF;}
	.st4{clip-path:url(#SVGID_2_);}
	.st5{fill:#616161;}
	.st6{fill:#99999A;}
	.st7{fill:none;}
	.st8{fill:#1A1A1A;}
	.st9{fill:#545554;}
	.st10{fill:#838383;}
	.st11{fill:#AEAEAF;}
</style>
<g>
	<g id="Pop">
		<g>
			<g>
				<path class="st0" d="M27.9,7.6c-11.2,0-20.4,9.1-20.4,20.4s9.1,20.4,20.4,20.4s20.4-9.1,20.4-20.4S39.1,7.6,27.9,7.6z M27.9,34
					c-3.4,0-6.1-2.7-6.1-6.1c0-3.4,2.7-6.1,6.1-6.1c3.4,0,6.1,2.7,6.1,6.1C34,31.3,31.3,34,27.9,34z"/>
			</g>
		</g>
		<g>
			<g>
				<path class="st3" d="M38.4,22.6c-0.3-0.3-0.8-0.6-1.1-0.6c-0.2,0-0.3,0.1-0.3,0.2c0,0,0,0.1,0,0.1c0,0,0,0,0,0c0,0,0,0,0,0.1
					c0,0.1,0.1,0.1,0.1,0.2c2.8,3.6,2.7,7.2,0,10.8C37,33.4,37,33.5,37,33.5c0,0.1,0,0.1,0,0.2c0,0.1,0.1,0.2,0.3,0.2
					c0.3,0,0.8-0.2,1.1-0.5c1.2-1.8,1.8-3.7,1.8-5.5C40.1,26,39.6,24.4,38.4,22.6z M43.7,27.6c0-0.1,0-0.2,0-0.3c0-0.2,0-0.3,0-0.5
					c0-0.3-0.1-0.7-0.2-1c-0.1-0.7-0.3-1.4-0.5-2.1c-0.4-1.4-1.3-2.7-2.3-4.1c-0.4-0.5-0.8-0.9-1.2-0.9c-0.2,0-0.3,0.1-0.3,0.3
					c0,0,0,0.1,0,0.1c0,0,0,0,0,0.1c0,0,0,0,0,0.1c0,0.1,0.1,0.2,0.2,0.3c3.4,3.7,5.1,10.1,0.1,16.6c-0.1,0.1-0.2,0.2-0.2,0.4
					c-0.1,0.1-0.1,0.2-0.1,0.3c0,0.2,0.1,0.3,0.3,0.3c0.2,0,0.4-0.1,0.7-0.3c0.4-0.5,0.6-0.7,0.8-0.9c1.1-1.4,1.7-2.6,2.1-4
					c0.2-0.7,0.4-1.4,0.5-2.1c0.1-0.3,0.1-0.7,0.1-1c0-0.2,0-0.3,0-0.5c0-0.1,0-0.2,0-0.3c0-0.1,0-0.2,0-0.3
					C43.7,27.8,43.7,27.7,43.7,27.6z M18.7,22.2c0-0.1-0.2-0.2-0.3-0.2c-0.3,0-0.8,0.3-1.1,0.6c-1.2,1.8-1.7,3.4-1.8,5.2
					c0.1,1.7,0.6,3.7,1.8,5.4c0.3,0.3,0.7,0.5,1,0.5c0.2,0,0.3-0.1,0.3-0.2c0-0.1,0-0.1,0-0.2c0-0.1,0-0.1-0.1-0.2
					c-2.7-3.5-2.7-7.1,0-10.6c0.1-0.1,0.1-0.2,0.1-0.2c0,0,0,0,0,0C18.7,22.3,18.7,22.3,18.7,22.2C18.7,22.2,18.7,22.2,18.7,22.2z
					 M16.2,36.1c-4.9-6.4-3.2-12.8,0.1-16.4c0.1-0.1,0.2-0.2,0.2-0.3c0,0,0-0.1,0-0.1c0,0,0,0,0-0.1c0,0,0-0.1,0-0.1
					c0-0.2-0.1-0.2-0.3-0.2c-0.4,0-0.8,0.4-1.2,0.9c-1,1.3-1.9,2.7-2.3,4c-0.2,0.7-0.4,1.4-0.5,2c-0.1,0.3-0.1,0.7-0.2,1
					c0,0.2,0,0.3,0,0.5c0,0.1,0,0.2,0,0.3c0,0.1,0,0.2,0,0.3c0,0.1,0,0.2,0,0.3c0,0.1,0,0.2,0,0.3c0,0.2,0,0.3,0,0.5
					c0,0.3,0.1,0.7,0.1,1c0.1,0.7,0.3,1.4,0.5,2.1c0.4,1.4,0.9,2.5,2,3.9c0.2,0.2,0.4,0.4,0.8,0.9c0.3,0.2,0.5,0.3,0.7,0.3
					c0.2,0,0.3-0.1,0.3-0.3c0-0.1,0-0.2-0.1-0.3C16.4,36.3,16.3,36.2,16.2,36.1z"/>
			</g>
		</g>
	</g>
</g>
</svg>
