<?xml version="1.0" encoding="utf-8"?>
<!-- Generator: Adobe Illustrator 21.1.0, SVG Export Plug-In . SVG Version: 6.00 Build 0)  -->
<svg version="1.1" id="mystic_x5F_light_x5F_rgb" xmlns="http://www.w3.org/2000/svg" xmlns:xlink="http://www.w3.org/1999/xlink"
	 x="0px" y="0px" viewBox="0 0 55 55" style="enable-background:new 0 0 55 55;" xml:space="preserve">
<style type="text/css">
	.st0{fill-rule:evenodd;clip-rule:evenodd;}
	.st1{fill-rule:evenodd;clip-rule:evenodd;fill:#221E1F;}
	.st2{fill:#FFFFFF;}
	.st3{fill-rule:evenodd;clip-rule:evenodd;fill:#FFFFFF;}
	.st4{clip-path:url(#SVGID_2_);}
	.st5{fill:#616161;}
	.st6{fill:#99999A;}
	.st7{fill:none;}
	.st8{fill:#1A1A1A;}
	.st9{fill:#545554;}
	.st10{fill:#838383;}
	.st11{fill:#AEAEAF;}
</style>
<g>
	<g id="彩虹">
		<defs>
			<rect id="SVGID_1_" x="2.5" y="11.7" width="49.9" height="25.4"/>
		</defs>
		<clipPath id="SVGID_2_">
			<use xlink:href="#SVGID_1_"  style="overflow:visible;"/>
		</clipPath>
		<g class="st4">
			<path d="M7.4,36c0-0.2,0-0.4,0-0.6c0-0.2,0-0.4,0.1-0.5c0.1-0.5-0.1,0.6,0,0.1c0-0.2,0.1-0.4,0.1-0.6c0.3-1.6,0.7-3.3,1.3-4.8
				c1.5-4.1,4.3-8,8.3-10.3c5.5-3.1,13.1-3.3,18.9-0.9c4.5,1.9,7.8,5.7,9.7,10c0.8,1.8,1.3,3.8,1.7,5.8c0.1,0.3,0.1,0.6,0.2,1
				c0.1,0.6,0-0.5,0,0.3c0,0.2,0,0.5,0.1,0.7c0.2,2.9,4.7,3,4.6,0c-0.4-8.3-5-16.9-12.4-20.9c-6.5-3.5-15.2-3.9-22.1-1.2
				c-5.6,2.2-9.9,6.5-12.3,12C4,29,3,32.5,2.8,36C2.6,38.9,7.2,38.9,7.4,36L7.4,36z"/>
			<path d="M13.6,36c0-0.1,0-0.2,0-0.4c-0.1,0.6,0-0.1,0.1-0.5c0.2-1.1,0.5-2.3,0.9-3.3c1-2.8,3-5.5,5.7-7.1
				c3.7-2.1,8.9-2.3,12.8-0.7c3,1.3,5.3,3.9,6.5,6.8c0.5,1.2,0.9,2.6,1.2,3.9c0,0.2,0.1,0.5,0.1,0.7c0.1,0.4-0.1-0.5,0,0.1
				c0,0.2,0,0.3,0,0.5c0.2,2.9,4.7,3,4.6,0c-0.3-6.2-3.7-12.6-9.2-15.5c-9-4.7-20.8-1.3-25.2,7.9c-1.1,2.4-1.9,5-2.2,7.6
				C8.8,39,13.4,39,13.6,36L13.6,36z"/>
			<path d="M19.3,36c-0.2,1.2,0.1-0.4,0.2-0.7c0.3-0.9,0.5-1.6,1-2.4c1.5-2.5,4-3.6,6.8-3.6c2.8,0,5.3,1.2,6.7,3.6
				c0.4,0.7,0.7,1.4,0.9,2.3c0.1,0.3,0.1,0.6,0.2,0.9c0.1,0.5,0-0.4,0-0.1c0.3,2.7,4.5,2.7,4.2,0c-0.7-6.3-5.6-10.9-12-10.9
				c-6.4,0-11.4,4.7-12.2,10.9C14.8,38.7,19,38.7,19.3,36L19.3,36z"/>
		</g>
	</g>
</g>
</svg>
