<?xml version="1.0" encoding="utf-8"?>
<!-- Generator: Adobe Illustrator 21.1.0, SVG Export Plug-In . SVG Version: 6.00 Build 0)  -->
<svg version="1.1" id="mystic_x5F_light_x5F_rgb" xmlns="http://www.w3.org/2000/svg" xmlns:xlink="http://www.w3.org/1999/xlink"
	 x="0px" y="0px" viewBox="0 0 55 55" style="enable-background:new 0 0 55 55;" xml:space="preserve">
<style type="text/css">
	.st0{fill-rule:evenodd;clip-rule:evenodd;}
	.st1{fill-rule:evenodd;clip-rule:evenodd;fill:#221E1F;}
	.st2{fill:#FFFFFF;}
	.st3{fill-rule:evenodd;clip-rule:evenodd;fill:#FFFFFF;}
	.st4{clip-path:url(#SVGID_2_);}
	.st5{fill:#616161;}
	.st6{fill:#99999A;}
	.st7{fill:none;}
	.st8{fill:#1A1A1A;}
	.st9{fill:#545554;}
	.st10{fill:#838383;}
	.st11{fill:#AEAEAF;}
</style>
<g>
	<g id="流星">
		<g>
			<path class="st0" d="M22,16.4l1.6,1.9l0.2-2.6l2.4-1l-2.3-1l-0.2-2.6L22.1,13l-2.6-0.5l1.5,2.2l-1.5,2.2L22,16.4z M26.9,12.3
				c1-0.5,3.8-4.4,14.8-5.3c0,0-13-0.3-15.8,4.3C25.4,12.1,26,12.6,26.9,12.3z M17.8,37.1l-2.5-6l-2.3,5.7l-6.7,0.7l5.2,4.1L9.6,48
				l5.9-3.2l5.1,3.3l-1.4-6.4l4.9-4.1L17.8,37.1z M20.3,30c-1.6,3.2,1.3,4.7,3.5,2c5.4-7.3,8.6-12.9,24.9-16.5
				C34.4,15,25.7,21.6,20.3,30z M35.1,37.3l-1.4-2.2l-0.6,2.4l-2.6,0.7l2.3,1.3l-0.4,2.6l2.1-1.6l2.2,1L36,39l1.7-1.9L35.1,37.3z
				 M35.9,34.1c0,1,0.7,1.2,1.4,0.5c0.7-0.9,1.5-5.6,11-11.3C48.2,23.4,36.4,28.7,35.9,34.1z"/>
		</g>
	</g>
</g>
</svg>
