<?xml version="1.0" encoding="utf-8"?>
<!-- Generator: Adobe Illustrator 21.1.0, SVG Export Plug-In . SVG Version: 6.00 Build 0)  -->
<svg version="1.1" id="mystic_x5F_light_x5F_rgb" xmlns="http://www.w3.org/2000/svg" xmlns:xlink="http://www.w3.org/1999/xlink"
	 x="0px" y="0px" viewBox="0 0 55 55" style="enable-background:new 0 0 55 55;" xml:space="preserve">
<style type="text/css">
	.st0{fill-rule:evenodd;clip-rule:evenodd;}
	.st1{fill-rule:evenodd;clip-rule:evenodd;fill:#221E1F;}
	.st2{fill:#FFFFFF;}
	.st3{fill-rule:evenodd;clip-rule:evenodd;fill:#FFFFFF;}
	.st4{clip-path:url(#SVGID_2_);}
	.st5{fill:#616161;}
	.st6{fill:#99999A;}
	.st7{fill:none;}
	.st8{fill:#1A1A1A;}
	.st9{fill:#545554;}
	.st10{fill:#838383;}
	.st11{fill:#AEAEAF;}
</style>
<g>
	<g id="閃爍">
		<g>
			<path class="st0" d="M20.3,9.6c0,16.5-14,18.7-14,18.7s14,2.2,14,18.7c0-16.5,14-18.7,14-18.7S20.3,26.2,20.3,9.6z M20.3,37.7
				c0-8.3-7-9.4-7-9.4s7-1.1,7-9.4c0,8.3,7,9.4,7,9.4S20.3,29.4,20.3,37.7z M38.7,24.6c0,9.9-8.4,11.2-8.4,11.2s8.4,1.3,8.4,11.2
				c0-9.9,8.4-11.2,8.4-11.2S38.7,34.5,38.7,24.6z M38.7,41.4c0-5-4.2-5.6-4.2-5.6s4.2-0.7,4.2-5.6c0,5,4.2,5.6,4.2,5.6
				S38.7,36.5,38.7,41.4z"/>
		</g>
	</g>
</g>
</svg>
