<?xml version="1.0" encoding="utf-8"?>
<!-- Generator: Adobe Illustrator 21.1.0, SVG Export Plug-In . SVG Version: 6.00 Build 0)  -->
<svg version="1.1" id="mystic_x5F_light_x5F_rgb" xmlns="http://www.w3.org/2000/svg" xmlns:xlink="http://www.w3.org/1999/xlink"
	 x="0px" y="0px" viewBox="0 0 55 55" style="enable-background:new 0 0 55 55;" xml:space="preserve">
<style type="text/css">
	.st0{fill-rule:evenodd;clip-rule:evenodd;}
	.st1{fill-rule:evenodd;clip-rule:evenodd;fill:#221E1F;}
	.st2{fill:#FFFFFF;}
	.st3{fill-rule:evenodd;clip-rule:evenodd;fill:#FFFFFF;}
	.st4{clip-path:url(#SVGID_2_);}
	.st5{fill:#616161;}
	.st6{fill:#99999A;}
	.st7{fill:none;}
	.st8{fill:#1A1A1A;}
	.st9{fill:#545554;}
	.st10{fill:#838383;}
	.st11{fill:#AEAEAF;}
</style>
<g>
	<g id="Game">
		<g>
			<g>
				<path class="st0" d="M47.3,31.8c-0.9-8.2-5.7-14.7-6.1-15.1c-0.3-0.6-4.6-4.1-8.4-1.2c-3.8,0-10,0-10,0s-3.9-2.9-8.4,1.1
					s-6.6,14-6.7,15.1c-0.2,2.8,1,8.8,5,8.9c1.5-1.5,7.3-6.1,7.3-6.1H35c0,0,7.2,6.1,7.3,6.2C46.7,40,47.6,34.3,47.3,31.8z
					 M34.7,20.5c0.8,0,1.4,0.6,1.4,1.4c0,0.8-0.6,1.4-1.4,1.4s-1.4-0.6-1.4-1.4C33.3,21.2,34,20.5,34.7,20.5z M20.8,29.5
					c-2.6,0-4.7-2.1-4.7-4.7c0-2.6,2.1-4.7,4.7-4.7c2.6,0,4.7,2.1,4.7,4.7C25.5,27.3,23.4,29.5,20.8,29.5z M31.9,26.1
					c-0.8,0-1.4-0.6-1.4-1.4s0.6-1.4,1.4-1.4s1.4,0.6,1.4,1.4S32.7,26.1,31.9,26.1z M34.7,28.9c-0.8,0-1.4-0.6-1.4-1.4
					s0.6-1.4,1.4-1.4s1.4,0.6,1.4,1.4S35.5,28.9,34.7,28.9z M37.5,26.1c-0.8,0-1.4-0.6-1.4-1.4s0.6-1.4,1.4-1.4
					c0.8,0,1.4,0.6,1.4,1.4S38.3,26.1,37.5,26.1z"/>
			</g>
		</g>
		<g>
			<g>
				<polygon class="st0" points="23.8,23.9 21.6,23.9 21.6,21.6 19.9,21.6 19.9,23.9 17.7,23.9 17.7,25.6 19.9,25.6 19.9,27.8 
					21.6,27.8 21.6,25.6 23.8,25.6 				"/>
			</g>
		</g>
	</g>
</g>
</svg>
