<?xml version="1.0" encoding="utf-8"?>
<!-- Generator: Adobe Illustrator 21.1.0, SVG Export Plug-In . SVG Version: 6.00 Build 0)  -->
<svg version="1.1" id="mystic_x5F_light_x5F_rgb" xmlns="http://www.w3.org/2000/svg" xmlns:xlink="http://www.w3.org/1999/xlink"
	 x="0px" y="0px" viewBox="0 0 55 55" style="enable-background:new 0 0 55 55;" xml:space="preserve">
<style type="text/css">
	.st0{fill-rule:evenodd;clip-rule:evenodd;}
	.st1{fill-rule:evenodd;clip-rule:evenodd;fill:#221E1F;}
	.st2{fill:#FFFFFF;}
	.st3{fill-rule:evenodd;clip-rule:evenodd;fill:#FFFFFF;}
	.st4{clip-path:url(#SVGID_2_);}
	.st5{fill:#616161;}
	.st6{fill:#99999A;}
	.st7{fill:none;}
	.st8{fill:#1A1A1A;}
	.st9{fill:#545554;}
	.st10{fill:#838383;}
	.st11{fill:#AEAEAF;}
</style>
<g>
	<g id="Rap">
		<g>
			<path class="st0" d="M45.7,6.6c-1-0.8-1.9-0.1-2.1,0.1l0,0L43.3,7l0,0l-6.4,5.7c0,0,0.9,1.5,0.7,2.1
				c-0.1,0.1-12.1,15.5-12.8,15.8c-0.5,0.5-1.8-0.6-1.7-2.1c-0.1-0.7,0.4-2.1,2.6-3.9c-1-0.5-3.7,0.5-4.8,2.1
				c-1,1.3-1.8,2.3-2.8,5.5c-1.8,4-6.2,4-8.3,7c-1.1,1.5-2.1,3.7,1.1,6.9c2.8,2.4,5.6,3.6,5.6,3.6s4,1.8,6.6-1.4
				c2.6-3.5,1.8-5.8,2.7-7.7c1-1.5,2.4-1.2,4.2-3.4c1.2-1.7,0.6-4.3,0.2-4.5c-0.5,2-2.5,2.8-2.6,2.8c-2,0.6-2.2-0.1-1.8-0.7
				c0.1-0.1,13.5-18.6,13.5-18.6s0.3-1.1,2.4-0.8c1.4-1,1.8-3.6,1.8-3.6s0.4-1,0.8-1.3c0.2,0,1.3-0.3,1.3-0.3S47.4,7.6,45.7,6.6z
				 M18.8,44.8l-3.4-2.5l0.6-0.8l3.4,2.5L18.8,44.8z M20,43.1l-3.4-2.5l0.6-0.8l3.4,2.5L20,43.1z M37.2,11.2l0.5,0.7l0.4-0.3
				L37.6,11l0.1-1.1c0,0-0.8-0.3-1.3,0c-0.3,0.5-0.3,0.9-0.2,1.3C36.5,11.2,37.2,11.2,37.2,11.2z M39.1,9.6l0.5,0.7l0.4-0.3
				l-0.5-0.7l0.1-1.1c0,0-0.8-0.3-1.3,0C38,8.7,38,9.1,38.1,9.5C38.4,9.5,39.1,9.6,39.1,9.6z M41,7.9l0.5,0.7l0.4-0.3l-0.5-0.7
				l0.1-1.1c0,0-0.8-0.3-1.3,0C39.9,7,39.9,7.5,40,7.8C40.3,7.8,41,7.9,41,7.9z M43.7,6.7L43.2,6L43.3,5c0,0-0.8-0.3-1.3,0
				c-0.3,0.5-0.3,0.9-0.2,1.3c0.3,0,1,0.1,1,0.1L43.3,7L43.7,6.7C43.6,6.7,43.6,6.7,43.7,6.7z"/>
		</g>
	</g>
</g>
</svg>
