<?xml version="1.0" encoding="utf-8"?>
<!-- Generator: Adobe Illustrator 21.1.0, SVG Export Plug-In . SVG Version: 6.00 Build 0)  -->
<svg version="1.1" id="mystic_x5F_light_x5F_rgb" xmlns="http://www.w3.org/2000/svg" xmlns:xlink="http://www.w3.org/1999/xlink"
	 x="0px" y="0px" viewBox="0 0 55 55" style="enable-background:new 0 0 55 55;" xml:space="preserve">
<style type="text/css">
	.st0{fill-rule:evenodd;clip-rule:evenodd;}
	.st1{fill-rule:evenodd;clip-rule:evenodd;fill:#221E1F;}
	.st2{fill:#FFFFFF;}
	.st3{fill-rule:evenodd;clip-rule:evenodd;fill:#FFFFFF;}
	.st4{clip-path:url(#SVGID_2_);}
	.st5{fill:#616161;}
	.st6{fill:#99999A;}
	.st7{fill:none;}
	.st8{fill:#1A1A1A;}
	.st9{fill:#545554;}
	.st10{fill:#838383;}
	.st11{fill:#AEAEAF;}
</style>
<g>
	<g id="隨機">
		<g>
			<path class="st0" d="M29.2,9.8h-4v4h4V9.8z M25.2,13.8h-4v4h4V13.8z M33.2,17.8v-4h-4v4H33.2z M21.2,17.8h-4v4h4V17.8z
				 M37.2,21.8v-4h-4v4H37.2z M17.2,21.8h-4v4h4V21.8z M41.2,25.8v-4h-4v4H41.2z M9.2,25.8v4h4v-4H9.2z M41.2,29.8h4v-4h-4V29.8z
				 M13.2,29.8v4h4v-4H13.2z M37.2,33.8h4v-4h-4V33.8z M17.2,33.8v4h4v-4H17.2z M33.2,37.8h4v-4h-4V37.8z M21.2,37.8v4h4v-4H21.2z
				 M29.2,41.8h4v-4h-4V41.8z M25.2,45.8h4v-4h-4V45.8z M33.2,21.8h-4v4h0v4h0v4h4v-4h4v-4h-4V21.8z M29.2,29.8v-8h0v-4h-4v4h-4v4h0
				v4h0v4h4v-4H29.2z M25.2,33.8h4v-4h-4V33.8z M17.2,25.8v4h4v-4H17.2z M25.2,37.8h4v-4h-4V37.8z M17.2,9.8h-4v4h4V9.8z M37.2,9.8
				v4h4v-4H37.2z M13.2,13.8h-4v4h4V13.8z M41.2,13.8v4h4v-4H41.2z M9.2,37.8v4h4v-4H9.2z M41.2,41.8h4v-4h-4V41.8z M13.2,45.8h4v-4
				h-4V45.8z M37.2,45.8h4v-4h-4V45.8z"/>
		</g>
	</g>
</g>
</svg>
