<?xml version="1.0" encoding="utf-8"?>
<!-- Generator: Adobe Illustrator 21.1.0, SVG Export Plug-In . SVG Version: 6.00 Build 0)  -->
<svg version="1.1" id="mystic_x5F_light_x5F_rgb" xmlns="http://www.w3.org/2000/svg" xmlns:xlink="http://www.w3.org/1999/xlink"
	 x="0px" y="0px" viewBox="0 0 55 55" style="enable-background:new 0 0 55 55;" xml:space="preserve">
<style type="text/css">
	.st0{fill-rule:evenodd;clip-rule:evenodd;}
	.st1{fill-rule:evenodd;clip-rule:evenodd;fill:#221E1F;}
	.st2{fill:#FFFFFF;}
	.st3{fill-rule:evenodd;clip-rule:evenodd;fill:#FFFFFF;}
	.st4{clip-path:url(#SVGID_2_);}
	.st5{fill:#616161;}
	.st6{fill:#99999A;}
	.st7{fill:none;}
	.st8{fill:#1A1A1A;}
	.st9{fill:#545554;}
	.st10{fill:#838383;}
	.st11{fill:#AEAEAF;}
</style>
<g>
	<g id="Jazz">
		<g>
			<g>
				<path class="st0" d="M45.4,10.7l-2-1l-0.7-0.2l-1.4-0.3l-0.3,0.1l-3.8-1.1c0,0-3.2-1.5-4.9,2c-0.3,0.6-1.1,2.1-2.2,4l-0.9-0.6
					c0.1-0.4-0.1-0.8-0.4-1c-0.5-0.3-1-0.1-1.3,0.3c-0.3,0.5-0.1,1.1,0.3,1.4c0.4,0.2,0.8,0.2,1.1-0.1l0.9,0.6
					c-0.4,0.7-0.8,1.4-1.3,2.1l-1-0.6c0.1-0.4-0.1-0.8-0.4-1c-0.5-0.3-1-0.1-1.3,0.3c-0.3,0.5-0.1,1.1,0.3,1.4
					c0.4,0.2,0.8,0.2,1.1-0.1l1,0.6c-0.4,0.7-0.9,1.5-1.3,2.2L25.8,19c0.1-0.4-0.1-0.8-0.4-1c-0.5-0.3-1-0.1-1.3,0.3
					c-0.3,0.5-0.1,1.1,0.3,1.4c0.4,0.2,0.8,0.2,1.1-0.1l1.1,0.7c-0.4,0.7-0.8,1.4-1.2,2l-1.1-0.7c0.1-0.4-0.1-0.8-0.4-1
					c-0.5-0.3-1-0.1-1.3,0.3c-0.3,0.5-0.1,1.1,0.3,1.4c0.4,0.2,0.8,0.2,1.1-0.1l1.1,0.7c-5.1,8.5-11,18.1-11,18.1s-1.2,0.9-1.2-0.6
					c0.4-2.1,6.3-9.7,5.9-17.5c0.6-0.3,3.6-1.5-0.2-2.1c-3.8-0.6-8.9,1-8.9,1s-3.2,1.2,0.8,1.8c2.9,3.2-2.2,13.3-3,16.4
					c-0.6,2.8,1,5.5,3.3,6.7c5.1,2,7.8-1.8,7.8-1.8l16.9-33.3c0,0,0.4-1.3,2.4-1.3c0.3,0,2.7,0.3,2.7,0.3s0.2,0.3,0.2,0.4
					c0.4,0.3,1.1,0.8,1.1,0.8l0.6,0.3l2,0.6l2.7,0.6l0.3-0.2L45.4,10.7z M11.1,22.4c0-0.4,1.6-0.8,3.6-1c2-0.2,3.7,0,3.7,0.3
					c0,0.4-1.6,0.8-3.6,1C12.8,23,11.2,22.8,11.1,22.4z"/>
			</g>
		</g>
		<path class="st3" d="M30.1,14.5c-0.2,0.3-0.1,0.7,0.2,0.9c0.3,0.2,0.7,0.1,0.9-0.2c0.2-0.3,0.1-0.7-0.2-0.9
			C30.7,14.1,30.3,14.2,30.1,14.5z"/>
		<path class="st3" d="M28.5,17.2c-0.2,0.3-0.1,0.7,0.2,0.9c0.3,0.2,0.7,0.1,0.9-0.2c0.2-0.3,0.1-0.7-0.2-0.9
			C29,16.8,28.6,16.9,28.5,17.2z"/>
		<path class="st3" d="M26.8,20c-0.2,0.3-0.1,0.7,0.2,0.9c0.3,0.2,0.7,0.1,0.9-0.2c0.2-0.3,0.1-0.7-0.2-0.9
			C27.4,19.6,27,19.7,26.8,20z"/>
		<path class="st3" d="M25.2,22.6c-0.2,0.3-0.1,0.7,0.2,0.9c0.3,0.2,0.7,0.1,0.9-0.2c0.2-0.3,0.1-0.7-0.2-0.9
			C25.8,22.3,25.4,22.3,25.2,22.6z"/>
	</g>
</g>
</svg>
