<?xml version="1.0" encoding="utf-8"?>
<!-- Generator: Adobe Illustrator 21.1.0, SVG Export Plug-In . SVG Version: 6.00 Build 0)  -->
<svg version="1.1" id="mystic_x5F_light_x5F_rgb" xmlns="http://www.w3.org/2000/svg" xmlns:xlink="http://www.w3.org/1999/xlink"
	 x="0px" y="0px" viewBox="0 0 55 55" style="enable-background:new 0 0 55 55;" xml:space="preserve">
<style type="text/css">
	.st0{fill-rule:evenodd;clip-rule:evenodd;}
	.st1{fill-rule:evenodd;clip-rule:evenodd;fill:#221E1F;}
	.st2{fill:#FFFFFF;}
	.st3{fill-rule:evenodd;clip-rule:evenodd;fill:#FFFFFF;}
	.st4{clip-path:url(#SVGID_2_);}
	.st5{fill:#616161;}
	.st6{fill:#99999A;}
	.st7{fill:none;}
	.st8{fill:#1A1A1A;}
	.st9{fill:#545554;}
	.st10{fill:#838383;}
	.st11{fill:#AEAEAF;}
</style>
<path class="st1" d="M55,26.8c-1.7-0.1-3.4-0.4-3.9-0.8l0,0c-0.2-0.3-0.7-1.2-1-1.8c-1.7-3-3.6-6.4-6.6-5.9
	c-2.4,0.4-3.8,3.1-4.8,9.1c-1,6.7-1.9,10.4-2.5,12.5c-0.5-2.1-1.2-5.9-1.9-12.5c-0.6-5.6-1.3-9.9-2.1-12.6c-0.4-1.4-1.5-5-4.5-5
	c0,0,0,0,0,0c-2.9,0-4.4,3.7-5.4,6.9c-1,3.1-1.7,7.2-2.1,10.8c-0.4,4.6-1.4,7.4-2,8.6c-0.5-1-1.4-3.3-2.3-8.7c-1.1-7-2.5-9.7-5-10.1
	c-3-0.4-4.6,3.2-6.2,6.8c-0.3,0.7-0.7,1.7-1,2.1c-0.5,0.3-2.2,0.5-3.9,0.5v4.4c2.2,0.1,5.3-0.2,6.9-1.7c0.7-0.6,1.1-1.6,1.9-3.5
	c0.4-0.8,1-2.3,1.6-3.3c0.3,0.9,0.8,2.6,1.2,5.5c1.4,9,3.4,12.9,6.6,12.9c0,0,0.1,0,0.1,0c4.6-0.1,5.9-9.2,6.3-13.1
	c0.5-5.7,1.9-10.7,3-12.8c0.6,1.5,1.5,5,2.4,12.9c0.6,6,1.3,10.3,2,13.2c0.5,1.9,1.3,5.4,4.1,5.4c0,0,0.1,0,0.1,0
	c2.7,0,3.8-3.5,4.7-6.8c0.7-2.8,1.5-6.8,2.2-11.7c0.4-2.8,0.9-4.2,1.2-5c0.7,0.8,1.5,2.4,2,3.2c1,1.9,1.7,3,2.7,3.4
	c1.5,0.9,4.1,1.2,6.1,1.4V26.8z"/>
</svg>
