<?xml version="1.0" encoding="utf-8"?>
<!-- Generator: Adobe Illustrator 21.1.0, SVG Export Plug-In . SVG Version: 6.00 Build 0)  -->
<svg version="1.1" id="mystic_x5F_light_x5F_rgb" xmlns="http://www.w3.org/2000/svg" xmlns:xlink="http://www.w3.org/1999/xlink"
	 x="0px" y="0px" viewBox="0 0 55 55" style="enable-background:new 0 0 55 55;" xml:space="preserve">
<style type="text/css">
	.st0{fill-rule:evenodd;clip-rule:evenodd;}
	.st1{fill-rule:evenodd;clip-rule:evenodd;fill:#221E1F;}
	.st2{fill:#FFFFFF;}
	.st3{fill-rule:evenodd;clip-rule:evenodd;fill:#FFFFFF;}
	.st4{clip-path:url(#SVGID_2_);}
	.st5{fill:#616161;}
	.st6{fill:#99999A;}
	.st7{fill:none;}
	.st8{fill:#1A1A1A;}
	.st9{fill:#545554;}
	.st10{fill:#838383;}
	.st11{fill:#AEAEAF;}
</style>
<g id="恆亮">
	<path class="st0" d="M19.7,13.7c3.1-1.7,5.2,2.8,2.6,4.4c-13.8,6.9-7.7,25,5.2,25c13.2,0,18.7-18,5.2-25c-2.6-1.5-0.5-6,2.6-4.4
		C52.8,22.1,47,48,27.5,48C7.9,48,2.6,22,19.7,13.7z"/>
	<path class="st0" d="M27.5,8.2c1.3,0,2.4,1.1,2.4,2.4v17.2c0,1.3-1.1,2.4-2.4,2.4c-1.3,0-2.4-1.1-2.4-2.4V10.6
		C25.1,9.3,26.2,8.2,27.5,8.2z"/>
</g>
</svg>
