<?xml version="1.0" encoding="utf-8"?>
<!-- Generator: Adobe Illustrator 21.1.0, SVG Export Plug-In . SVG Version: 6.00 Build 0)  -->
<svg version="1.1" id="mystic_x5F_light_x5F_rgb" xmlns="http://www.w3.org/2000/svg" xmlns:xlink="http://www.w3.org/1999/xlink"
	 x="0px" y="0px" viewBox="0 0 55 55" style="enable-background:new 0 0 55 55;" xml:space="preserve">
<style type="text/css">
	.st0{fill-rule:evenodd;clip-rule:evenodd;}
	.st1{fill-rule:evenodd;clip-rule:evenodd;fill:#221E1F;}
	.st2{fill:#FFFFFF;}
	.st3{fill-rule:evenodd;clip-rule:evenodd;fill:#FFFFFF;}
	.st4{clip-path:url(#SVGID_2_);}
	.st5{fill:#616161;}
	.st6{fill:#99999A;}
	.st7{fill:none;}
	.st8{fill:#1A1A1A;}
	.st9{fill:#545554;}
	.st10{fill:#838383;}
	.st11{fill:#AEAEAF;}
</style>
<g>
	<rect x="9" y="17.9" class="st5" width="13.6" height="12.5"/>
	<path d="M16.2,46h6.4V30.4H9v8.4C9,42.8,12.2,46,16.2,46z"/>
	<rect x="23.6" y="22" class="st5" width="11.5" height="12.5"/>
	<rect x="23.6" y="9" class="st6" width="11.5" height="13"/>
	<rect x="23.6" y="34.4" width="11.5" height="11.6"/>
	<rect x="36" y="26" class="st5" width="10" height="12.2"/>
	<path class="st6" d="M46,16.2c0-4-3.2-7.2-7.2-7.2H36v17h10V16.2z"/>
	<path d="M38.8,46c4,0,7.2-3.2,7.2-7.2v-0.6H36V46H38.8z"/>
	<path class="st6" d="M16.2,9c-4,0-7.2,3.2-7.2,7.2v1.7h13.6V9H16.2z"/>
</g>
</svg>
