<?xml version="1.0" encoding="utf-8"?>
<!-- Generator: Adobe Illustrator 21.1.0, SVG Export Plug-In . SVG Version: 6.00 Build 0)  -->
<svg version="1.1" id="mystic_x5F_light_x5F_rgb" xmlns="http://www.w3.org/2000/svg" xmlns:xlink="http://www.w3.org/1999/xlink"
	 x="0px" y="0px" viewBox="0 0 55 55" style="enable-background:new 0 0 55 55;" xml:space="preserve">
<style type="text/css">
	.st0{fill-rule:evenodd;clip-rule:evenodd;}
	.st1{fill-rule:evenodd;clip-rule:evenodd;fill:#221E1F;}
	.st2{fill:#FFFFFF;}
	.st3{fill-rule:evenodd;clip-rule:evenodd;fill:#FFFFFF;}
	.st4{clip-path:url(#SVGID_2_);}
	.st5{fill:#616161;}
	.st6{fill:#99999A;}
	.st7{fill:none;}
	.st8{fill:#1A1A1A;}
	.st9{fill:#545554;}
	.st10{fill:#838383;}
	.st11{fill:#AEAEAF;}
</style>
<polygon class="st8" points="32.8,17.6 42.7,35.2 38.2,35.2 39.4,37.4 51.7,37.4 40.6,17.6 "/>
<polygon class="st9" points="18.5,17.6 28.5,35.2 23.9,35.2 25.1,37.4 37.5,37.4 26.3,17.6 "/>
<polygon points="52.4,35.2 53.7,37.4 55,37.4 55,35.2 "/>
<polygon points="47.1,17.6 55,31.7 55,17.9 54.8,17.6 "/>
<polygon class="st10" points="4.3,17.6 14.2,35.2 9.6,35.2 10.9,37.4 23.2,37.4 12,17.6 "/>
<polygon class="st11" points="0,21.6 0,37.4 8.9,37.4 "/>
</svg>
