<?xml version="1.0" encoding="utf-8"?>
<!-- Generator: Adobe Illustrator 21.1.0, SVG Export Plug-In . SVG Version: 6.00 Build 0)  -->
<svg version="1.1" id="mystic_x5F_light_x5F_rgb" xmlns="http://www.w3.org/2000/svg" xmlns:xlink="http://www.w3.org/1999/xlink"
	 x="0px" y="0px" viewBox="0 0 55 55" style="enable-background:new 0 0 55 55;" xml:space="preserve">
<style type="text/css">
	.st0{fill-rule:evenodd;clip-rule:evenodd;}
	.st1{fill-rule:evenodd;clip-rule:evenodd;fill:#221E1F;}
	.st2{fill:#FFFFFF;}
	.st3{fill-rule:evenodd;clip-rule:evenodd;fill:#FFFFFF;}
	.st4{clip-path:url(#SVGID_2_);}
	.st5{fill:#616161;}
	.st6{fill:#99999A;}
	.st7{fill:none;}
	.st8{fill:#1A1A1A;}
	.st9{fill:#545554;}
	.st10{fill:#838383;}
	.st11{fill:#AEAEAF;}
</style>
<g>
	<g id="Movie">
		<g>
			<g>
				<path class="st0" d="M35.7,18H11.1c-1.2,0-2.2,1-2.2,2.3v14.5c0,1.3,1,2.3,2.2,2.3h24.6c1.2,0,2.2-1,2.2-2.3V20.2
					C37.9,19,36.9,18,35.7,18z M28.2,27.9c-0.3,0.2-6.4,3.7-7,4c-0.3,0.2-0.8,0-0.8-0.4c0-0.4,0-7.5,0-8.1c0-0.4,0.4-0.6,0.8-0.4
					c0.4,0.2,6.7,3.9,7,4C28.6,27.2,28.6,27.7,28.2,27.9z M47.1,18.6l-7.6,3.7v10.3l7.6,3.8c0,0,0.6-0.1,0.6-0.3c0-2.2,0-14.6,0-17
					C47.7,18.8,47.1,18.6,47.1,18.6z"/>
			</g>
		</g>
		<g>
			<path d="M15.2,14.2c1.4-1.4,3.1-2.4,4.9-3.1c4.5-1.7,8.7-0.2,12.1,3.1c0.7,0.7,1.7-0.4,1-1c-3.5-3.4-8-5.2-12.8-3.7
				c-2.3,0.7-4.6,2-6.3,3.7C13.5,13.8,14.6,14.9,15.2,14.2L15.2,14.2z"/>
			<path d="M18.4,15.9c3-2.6,7.2-2.8,10.1,0c0.7,0.6,1.7-0.4,1-1c-3.6-3.3-8.5-3.1-12.2,0C16.7,15.5,17.7,16.5,18.4,15.9L18.4,15.9z
				"/>
		</g>
		<g>
			<path d="M14.2,41.9c1.7,1.7,4,3,6.3,3.7c4.8,1.4,9.3-0.4,12.8-3.7c0.7-0.7-0.4-1.7-1-1c-3.4,3.2-7.6,4.8-12.1,3.1
				c-1.8-0.7-3.6-1.7-4.9-3.1C14.6,40.2,13.5,41.2,14.2,41.9L14.2,41.9z"/>
			<path d="M17.4,40.2c3.7,3.1,8.6,3.3,12.2,0c0.7-0.6-0.3-1.7-1-1c-2.9,2.8-7.1,2.6-10.1,0C17.7,38.5,16.7,39.5,17.4,40.2
				L17.4,40.2z"/>
		</g>
	</g>
</g>
</svg>
