<?xml version="1.0" encoding="utf-8"?>
<!-- Generator: Adobe Illustrator 21.1.0, SVG Export Plug-In . SVG Version: 6.00 Build 0)  -->
<svg version="1.1" id="mystic_x5F_light_x5F_rgb" xmlns="http://www.w3.org/2000/svg" xmlns:xlink="http://www.w3.org/1999/xlink"
	 x="0px" y="0px" viewBox="0 0 55 55" style="enable-background:new 0 0 55 55;" xml:space="preserve">
<style type="text/css">
	.st0{fill-rule:evenodd;clip-rule:evenodd;}
	.st1{fill-rule:evenodd;clip-rule:evenodd;fill:#221E1F;}
	.st2{fill:#FFFFFF;}
	.st3{fill-rule:evenodd;clip-rule:evenodd;fill:#FFFFFF;}
	.st4{clip-path:url(#SVGID_2_);}
	.st5{fill:#616161;}
	.st6{fill:#99999A;}
	.st7{fill:none;}
	.st8{fill:#1A1A1A;}
	.st9{fill:#545554;}
	.st10{fill:#838383;}
	.st11{fill:#AEAEAF;}
</style>
<g>
	<g id="CPU溫度">
		<g>
			<g>
				<path class="st0" d="M47,28.8c0.7,0,1.3-0.6,1.3-1.3s-0.6-1.3-1.3-1.3h-2.9v-5.8H47c0.7,0,1.3-0.6,1.3-1.3
					c0-0.7-0.6-1.3-1.3-1.3h-2.9V14c0-1.5-1.2-2.7-2.7-2.7h-3.7V8.4c0-0.7-0.6-1.3-1.3-1.3s-1.3,0.6-1.3,1.3v2.9h-5.8V8.4
					c0-0.7-0.6-1.3-1.3-1.3s-1.3,0.6-1.3,1.3v2.9h-5.8V8.4c0-0.7-0.6-1.3-1.3-1.3c-0.7,0-1.3,0.6-1.3,1.3v2.9h-3.7
					c-1.5,0-2.7,1.2-2.7,2.7v3.7H8.8c-0.7,0-1.3,0.6-1.3,1.3c0,0.7,0.6,1.3,1.3,1.3h2.9v5.8H8.8c-0.7,0-1.3,0.6-1.3,1.3
					s0.6,1.3,1.3,1.3h2.9v5.8H8.8c-0.7,0-1.3,0.6-1.3,1.3s0.6,1.3,1.3,1.3h2.9v3.7c0,1.5,1.2,2.7,2.7,2.7h3.7v2.9
					c0,0.7,0.6,1.3,1.3,1.3c0.7,0,1.3-0.6,1.3-1.3v-2.9h5.8v2.9c0,0.7,0.6,1.3,1.3,1.3s1.3-0.6,1.3-1.3v-2.9h5.8v2.9
					c0,0.7,0.6,1.3,1.3,1.3s1.3-0.6,1.3-1.3v-2.9h3.7c1.5,0,2.7-1.2,2.7-2.7v-3.7H47c0.7,0,1.3-0.6,1.3-1.3s-0.6-1.3-1.3-1.3h-2.9
					v-5.8H47z M17.2,19.2c-1.3,0-2.3-1-2.3-2.3c0-1.3,1-2.3,2.3-2.3c1.3,0,2.3,1,2.3,2.3C19.6,18.1,18.5,19.2,17.2,19.2z"/>
			</g>
		</g>
		<path class="st2" d="M23.7,38.2c-0.7,0-1.5-0.2-2.1-0.6c-1-0.6-1.7-1.5-2-2.6c-0.3-1.1-0.1-2.2,0.4-3.2c0.7-1.3,2-2.1,3.5-2.1
			l7.1-12.2c0.6-1.1,2.1-1.5,3.2-0.8c1.1,0.6,1.5,2.1,0.8,3.2L27.5,32c0.7,1.3,0.6,2.8-0.1,4.1C26.6,37.5,25.1,38.2,23.7,38.2z
			 M23.7,30.7c-1.2,0-2.2,0.6-2.8,1.6c-0.4,0.7-0.5,1.6-0.3,2.5c0.2,0.8,0.8,1.5,1.5,2c1.5,0.9,3.5,0.4,4.4-1.2c0.6-1,0.6-2.3,0-3.3
			L26.3,32l7.3-12.7c0.4-0.6,0.1-1.4-0.5-1.8c-0.6-0.4-1.4-0.1-1.8,0.5L24,30.7L23.7,30.7C23.7,30.7,23.7,30.7,23.7,30.7z"/>
		<path class="st3" d="M36.1,22.8c-0.2,0.3-0.6,0.4-1.2,0l-2.1-1.2l0.6-1.1l2.1,1.2C36.2,22.1,36.3,22.5,36.1,22.8z"/>
		<path class="st3" d="M34.7,25.2c-0.2,0.3-0.6,0.4-1.2,0L31.4,24L32,23l2.1,1.2C34.8,24.6,34.9,24.9,34.7,25.2z"/>
		<path class="st3" d="M33.3,27.7c-0.2,0.3-0.6,0.4-1.2,0L30,26.5l0.6-1.1l2.1,1.2C33.3,27,33.5,27.4,33.3,27.7z"/>
		<ellipse transform="matrix(0.5 -0.866 0.866 0.5 -17.5889 37.4766)" class="st3" cx="23.7" cy="34" rx="1.9" ry="1.9"/>
		<path class="st3" d="M32.1,19.3c0.2,0.1,0.3,0.4,0.1,0.7l-7.5,13c0,0-0.1-0.2-0.3-0.3c-0.2-0.1-0.5-0.1-0.5-0.1l7.5-13
			C31.6,19.3,31.9,19.2,32.1,19.3z"/>
	</g>
</g>
</svg>
